# xmcd
#
# Track frame offsets: 
#        150
#        20217
#        36539
#        54985
#        71894
#
# Disc length: 1228 seconds
#
# Revision: 0
# Processed by: cddbd v1.4PL0 Copyright (c) Steve Scherf et al.
# Submitted via: ExactAudioCopy v0.90b3
#
DISCID=4904ca05
DTITLE=Caitlin Cary - Waltzie
DYEAR=2002
DGENRE=Folk
TTITLE0=Sorry
TTITLE1=Rosemary Moore
TTITLE2=Nursery Lie
TTITLE3=Big Town
TTITLE4=Withered and Died
EXTD=
EXTT0=
EXTT1=
EXTT2=
EXTT3=
EXTT4=
PLAYORDER=
